# xmcd
#
# Track frame offsets:
#	150
#	26020
#	48243
#	68673
#	92800
#	113783
#	147088
#	167780
#	184953
#	211553
#	234863
#	251073
#	270185
#	288703
#
# Disc length: 4131 seconds
#
# Revision: 1
# Processed by: cddbd v1.5.2PL0 Copyright (c) Steve Scherf et al.
# Submitted via: audiograbber 1.83.01
#
DISCID=bf10210e
DTITLE=Golden Earring - Complete Studio Recordings [CD 23) - Paradise In Distre
DTITLE=ss [remastered 2017]
DYEAR=1999
DGENRE=Rock
TTITLE0=Paradise In Distress
TTITLE1=Apocalypse
TTITLE2=Evil Love Chain
TTITLE3=Darling
TTITLE4=Take My Hand - Close My Eyes
TTITLE5=The Fighter
TTITLE6=One Night Without You
TTITLE7=Whisper In A Crowd
TTITLE8=Deja Voodoo
TTITLE9=Bad News To Fall In Love (With A Mean Motherfucker)
TTITLE10=42nd Street
TTITLE11=Fluid Conduction
TTITLE12=Desperately Trying To Be Different
TTITLE13=Gambler's Blues
EXTD=
EXTT0=
EXTT1=
EXTT2=
EXTT3=
EXTT4=
EXTT5=
EXTT6=
EXTT7=
EXTT8=
EXTT9=
EXTT10=
EXTT11=
EXTT12=
EXTT13=
PLAYORDER=
